<svg width="14" height="14" viewBox="0 0 14 14" fill="none" xmlns="http://www.w3.org/2000/svg">
<path d="M6.99999 11.0833C7.11536 11.0833 7.22814 11.0491 7.32407 10.985C7.42 10.9209 7.49477 10.8298 7.53892 10.7232C7.58307 10.6167 7.59462 10.4994 7.57211 10.3862C7.54961 10.2731 7.49405 10.1691 7.41247 10.0875C7.33089 10.006 7.22695 9.95039 7.11379 9.92789C7.00064 9.90538 6.88335 9.91693 6.77676 9.96108C6.67017 10.0052 6.57906 10.08 6.51497 10.1759C6.45087 10.2719 6.41666 10.3846 6.41666 10.5C6.41666 10.6547 6.47811 10.8031 6.58751 10.9125C6.69691 11.0219 6.84528 11.0833 6.99999 11.0833ZM9.91666 11.0833C10.032 11.0833 10.1448 11.0491 10.2407 10.985C10.3367 10.9209 10.4114 10.8298 10.4556 10.7232C10.4997 10.6167 10.5113 10.4994 10.4888 10.3862C10.4663 10.2731 10.4107 10.1691 10.3291 10.0875C10.2476 10.006 10.1436 9.95039 10.0305 9.92789C9.9173 9.90538 9.80001 9.91693 9.69342 9.96108C9.58683 10.0052 9.49573 10.08 9.43163 10.1759C9.36753 10.2719 9.33332 10.3846 9.33332 10.5C9.33332 10.6547 9.39478 10.8031 9.50418 10.9125C9.61357 11.0219 9.76195 11.0833 9.91666 11.0833ZM9.91666 8.75001C10.032 8.75001 10.1448 8.7158 10.2407 8.6517C10.3367 8.5876 10.4114 8.4965 10.4556 8.38991C10.4997 8.28332 10.5113 8.16603 10.4888 8.05287C10.4663 7.93972 10.4107 7.83578 10.3291 7.7542C10.2476 7.67262 10.1436 7.61706 10.0305 7.59455C9.9173 7.57204 9.80001 7.5836 9.69342 7.62775C9.58683 7.6719 9.49573 7.74667 9.43163 7.84259C9.36753 7.93852 9.33332 8.0513 9.33332 8.16668C9.33332 8.32139 9.39478 8.46976 9.50418 8.57916C9.61357 8.68855 9.76195 8.75001 9.91666 8.75001ZM6.99999 8.75001C7.11536 8.75001 7.22814 8.7158 7.32407 8.6517C7.42 8.5876 7.49477 8.4965 7.53892 8.38991C7.58307 8.28332 7.59462 8.16603 7.57211 8.05287C7.54961 7.93972 7.49405 7.83578 7.41247 7.7542C7.33089 7.67262 7.22695 7.61706 7.11379 7.59455C7.00064 7.57204 6.88335 7.5836 6.77676 7.62775C6.67017 7.6719 6.57906 7.74667 6.51497 7.84259C6.45087 7.93852 6.41666 8.0513 6.41666 8.16668C6.41666 8.32139 6.47811 8.46976 6.58751 8.57916C6.69691 8.68855 6.84528 8.75001 6.99999 8.75001ZM11.0833 1.75001H10.5V1.16668C10.5 1.01197 10.4385 0.863594 10.3291 0.754198C10.2197 0.644802 10.0714 0.583344 9.91666 0.583344C9.76195 0.583344 9.61357 0.644802 9.50418 0.754198C9.39478 0.863594 9.33332 1.01197 9.33332 1.16668V1.75001H4.66666V1.16668C4.66666 1.01197 4.6052 0.863594 4.4958 0.754198C4.38641 0.644802 4.23803 0.583344 4.08332 0.583344C3.92861 0.583344 3.78024 0.644802 3.67084 0.754198C3.56145 0.863594 3.49999 1.01197 3.49999 1.16668V1.75001H2.91666C2.45253 1.75001 2.00741 1.93438 1.67922 2.26257C1.35103 2.59076 1.16666 3.03588 1.16666 3.50001V11.6667C1.16666 12.1308 1.35103 12.5759 1.67922 12.9041C2.00741 13.2323 2.45253 13.4167 2.91666 13.4167H11.0833C11.5475 13.4167 11.9926 13.2323 12.3208 12.9041C12.6489 12.5759 12.8333 12.1308 12.8333 11.6667V3.50001C12.8333 3.03588 12.6489 2.59076 12.3208 2.26257C11.9926 1.93438 11.5475 1.75001 11.0833 1.75001ZM11.6667 11.6667C11.6667 11.8214 11.6052 11.9698 11.4958 12.0792C11.3864 12.1886 11.238 12.25 11.0833 12.25H2.91666C2.76195 12.25 2.61357 12.1886 2.50418 12.0792C2.39478 11.9698 2.33332 11.8214 2.33332 11.6667V6.41668H11.6667V11.6667ZM11.6667 5.25001H2.33332V3.50001C2.33332 3.3453 2.39478 3.19693 2.50418 3.08753C2.61357 2.97814 2.76195 2.91668 2.91666 2.91668H3.49999V3.50001C3.49999 3.65472 3.56145 3.80309 3.67084 3.91249C3.78024 4.02189 3.92861 4.08334 4.08332 4.08334C4.23803 4.08334 4.38641 4.02189 4.4958 3.91249C4.6052 3.80309 4.66666 3.65472 4.66666 3.50001V2.91668H9.33332V3.50001C9.33332 3.65472 9.39478 3.80309 9.50418 3.91249C9.61357 4.02189 9.76195 4.08334 9.91666 4.08334C10.0714 4.08334 10.2197 4.02189 10.3291 3.91249C10.4385 3.80309 10.5 3.65472 10.5 3.50001V2.91668H11.0833C11.238 2.91668 11.3864 2.97814 11.4958 3.08753C11.6052 3.19693 11.6667 3.3453 11.6667 3.50001V5.25001ZM4.08332 8.75001C4.1987 8.75001 4.31148 8.7158 4.40741 8.6517C4.50333 8.5876 4.5781 8.4965 4.62225 8.38991C4.6664 8.28332 4.67796 8.16603 4.65545 8.05287C4.63294 7.93972 4.57738 7.83578 4.4958 7.7542C4.41422 7.67262 4.31028 7.61706 4.19713 7.59455C4.08397 7.57204 3.96668 7.5836 3.86009 7.62775C3.7535 7.6719 3.6624 7.74667 3.5983 7.84259C3.5342 7.93852 3.49999 8.0513 3.49999 8.16668C3.49999 8.32139 3.56145 8.46976 3.67084 8.57916C3.78024 8.68855 3.92861 8.75001 4.08332 8.75001ZM4.08332 11.0833C4.1987 11.0833 4.31148 11.0491 4.40741 10.985C4.50333 10.9209 4.5781 10.8298 4.62225 10.7232C4.6664 10.6167 4.67796 10.4994 4.65545 10.3862C4.63294 10.2731 4.57738 10.1691 4.4958 10.0875C4.41422 10.006 4.31028 9.95039 4.19713 9.92789C4.08397 9.90538 3.96668 9.91693 3.86009 9.96108C3.7535 10.0052 3.6624 10.08 3.5983 10.1759C3.5342 10.2719 3.49999 10.3846 3.49999 10.5C3.49999 10.6547 3.56145 10.8031 3.67084 10.9125C3.78024 11.0219 3.92861 11.0833 4.08332 11.0833Z" fill="#6C757D"/>
</svg>
