<svg width="14" height="14" viewBox="0 0 14 14" fill="none" xmlns="http://www.w3.org/2000/svg">
<path d="M12.7867 6.76668C11.6083 4.03084 9.39168 2.33334 7.00001 2.33334C4.60834 2.33334 2.39168 4.03084 1.21334 6.76668C1.18122 6.84027 1.16464 6.91971 1.16464 7.00001C1.16464 7.08031 1.18122 7.15975 1.21334 7.23334C2.39168 9.96918 4.60834 11.6667 7.00001 11.6667C9.39168 11.6667 11.6083 9.96918 12.7867 7.23334C12.8188 7.15975 12.8354 7.08031 12.8354 7.00001C12.8354 6.91971 12.8188 6.84027 12.7867 6.76668V6.76668ZM7.00001 10.5C5.15084 10.5 3.40084 9.16418 2.39168 7.00001C3.40084 4.83584 5.15084 3.50001 7.00001 3.50001C8.84918 3.50001 10.5992 4.83584 11.6083 7.00001C10.5992 9.16418 8.84918 10.5 7.00001 10.5ZM7.00001 4.66668C6.53852 4.66668 6.08739 4.80352 5.70368 5.05991C5.31996 5.3163 5.02089 5.68072 4.84429 6.10708C4.66769 6.53344 4.62148 7.0026 4.71151 7.45522C4.80154 7.90784 5.02377 8.3236 5.35009 8.64993C5.67642 8.97625 6.09218 9.19848 6.5448 9.28851C6.99742 9.37854 7.46658 9.33233 7.89294 9.15573C8.3193 8.97913 8.68371 8.68006 8.9401 8.29634C9.19649 7.91263 9.33334 7.4615 9.33334 7.00001C9.33334 6.38117 9.08751 5.78768 8.64992 5.35009C8.21234 4.91251 7.61885 4.66668 7.00001 4.66668V4.66668ZM7.00001 8.16668C6.76926 8.16668 6.5437 8.09825 6.35184 7.97006C6.15999 7.84186 6.01045 7.65965 5.92215 7.44647C5.83385 7.23329 5.81074 6.99872 5.85576 6.77241C5.90078 6.54609 6.01189 6.33821 6.17505 6.17505C6.33821 6.01189 6.54609 5.90078 6.7724 5.85576C6.99871 5.81074 7.23329 5.83385 7.44647 5.92215C7.65965 6.01045 7.84186 6.15999 7.97006 6.35185C8.09825 6.5437 8.16668 6.76927 8.16668 7.00001C8.16668 7.30943 8.04376 7.60618 7.82497 7.82497C7.60617 8.04376 7.30943 8.16668 7.00001 8.16668Z" fill="#6C757D"/>
</svg>
