<svg width="24" height="24" viewBox="0 0 24 24" fill="none" xmlns="http://www.w3.org/2000/svg">
<path d="M11.9911 1.00068C10.5578 0.948525 9.12886 1.18737 7.79047 1.7028C6.45208 2.21823 5.23202 2.99955 4.20397 3.99958C3.17592 4.99961 2.36119 6.19762 1.80899 7.52125C1.25678 8.84489 0.978544 10.2667 0.99108 11.7009C0.972288 13.1786 1.26683 14.6436 1.85529 15.9993C2.44375 17.355 3.31279 18.5706 4.40514 19.5661L4.45687 21.2565C4.47153 21.7238 4.66748 22.1671 5.00323 22.4924C5.33898 22.8178 5.78817 22.9997 6.2557 22.9997C6.50578 22.9994 6.75311 22.9475 6.98226 22.8474L8.90316 22.0007C9.91047 22.2689 10.9487 22.4035 11.9911 22.4011C13.4244 22.4532 14.8534 22.2144 16.1918 21.699C17.5303 21.1836 18.7504 20.4023 19.7786 19.4023C20.8067 18.4022 21.6215 17.2042 22.1738 15.8806C22.7261 14.5569 23.0045 13.1351 22.9921 11.7009C23.0045 10.2667 22.7261 8.84481 22.1738 7.52116C21.6215 6.19751 20.8067 4.99951 19.7786 3.99948C18.7504 2.99946 17.5303 2.21816 16.1919 1.70275C14.8534 1.18734 13.4244 0.948508 11.9911 1.00068ZM11.9911 20.4011C11.101 20.4036 10.2147 20.2857 9.35632 20.0505C8.9588 19.9432 8.53653 19.9757 8.16003 20.1423L6.44616 20.8981L6.40124 19.405C6.3913 19.1631 6.33294 18.9257 6.22961 18.7068C6.12628 18.4879 5.98008 18.292 5.79967 18.1306C4.90022 17.321 4.18429 16.3285 3.69989 15.2195C3.21548 14.1106 2.97381 12.9109 2.99108 11.7009C2.98468 10.531 3.21537 9.37204 3.66924 8.29382C4.12311 7.21561 4.79074 6.24054 5.63184 5.42746C6.47293 4.61438 7.47006 3.98015 8.56302 3.56306C9.65599 3.14597 10.8221 2.95466 11.9911 3.00068C13.1585 2.96099 14.3219 3.15666 15.4121 3.57602C16.5023 3.99538 17.497 4.62986 18.3369 5.44167C19.1767 6.25347 19.8447 7.226 20.3008 8.30133C20.757 9.37666 20.992 10.5328 20.992 11.7009C20.992 12.869 20.757 14.0251 20.3008 15.1004C19.8447 16.1757 19.1767 17.1483 18.3369 17.9601C17.497 18.7719 16.5023 19.4064 15.4121 19.8257C14.3219 20.2451 13.1585 20.4407 11.9911 20.4011Z" fill="white"/>
<path d="M8.2 13.25C8.86274 13.25 9.4 12.7463 9.4 12.125C9.4 11.5037 8.86274 11 8.2 11C7.53726 11 7 11.5037 7 12.125C7 12.7463 7.53726 13.25 8.2 13.25Z" fill="white"/>
<path d="M12.4002 13.25C13.0629 13.25 13.6002 12.7463 13.6002 12.125C13.6002 11.5037 13.0629 11 12.4002 11C11.7375 11 11.2002 11.5037 11.2002 12.125C11.2002 12.7463 11.7375 13.25 12.4002 13.25Z" fill="white"/>
<path d="M16.5999 13.25C17.2626 13.25 17.7999 12.7463 17.7999 12.125C17.7999 11.5037 17.2626 11 16.5999 11C15.9372 11 15.3999 11.5037 15.3999 12.125C15.3999 12.7463 15.9372 13.25 16.5999 13.25Z" fill="white"/>
</svg>
