<svg width="14" height="14" viewBox="0 0 14 14" fill="none" xmlns="http://www.w3.org/2000/svg">
<path d="M6.99998 6.30001C7.23072 6.30001 7.45629 6.23159 7.64815 6.10339C7.84 5.9752 7.98954 5.79299 8.07784 5.57981C8.16614 5.36663 8.18925 5.13205 8.14423 4.90574C8.09921 4.67943 7.9881 4.47155 7.82494 4.30839C7.66178 4.14522 7.4539 4.03411 7.22759 3.98909C7.00127 3.94408 6.7667 3.96718 6.55352 4.05548C6.34034 4.14379 6.15813 4.29332 6.02993 4.48518C5.90174 4.67704 5.83331 4.9026 5.83331 5.13334C5.83331 5.44276 5.95623 5.73951 6.17502 5.9583C6.39381 6.17709 6.69056 6.30001 6.99998 6.30001ZM6.58581 10.3308C6.64004 10.3855 6.70456 10.4289 6.77564 10.4585C6.84673 10.4881 6.92297 10.5034 6.99998 10.5034C7.07699 10.5034 7.15323 10.4881 7.22432 10.4585C7.2954 10.4289 7.35992 10.3855 7.41415 10.3308L9.79998 7.93918C10.3541 7.38533 10.7316 6.67958 10.8846 5.91119C11.0376 5.14281 10.9592 4.34631 10.6595 3.62245C10.3598 2.89858 9.85212 2.27986 9.20072 1.84454C8.54932 1.40923 7.78345 1.17688 6.99998 1.17688C6.21651 1.17688 5.45064 1.40923 4.79924 1.84454C4.14784 2.27986 3.64017 2.89858 3.34045 3.62245C3.04072 4.34631 2.96241 5.14281 3.1154 5.91119C3.2684 6.67958 3.64584 7.38533 4.19998 7.93918L6.58581 10.3308ZM4.21748 4.86501C4.25734 4.4491 4.38957 4.04735 4.60454 3.68908C4.8195 3.33081 5.11176 3.02507 5.45998 2.79418C5.91743 2.49382 6.45273 2.33379 6.99998 2.33379C7.54723 2.33379 8.08253 2.49382 8.53998 2.79418C8.88588 3.02427 9.17648 3.32816 9.3909 3.68398C9.60533 4.03981 9.73823 4.43873 9.78007 4.85205C9.8219 5.26538 9.77163 5.68284 9.63285 6.07441C9.49408 6.46598 9.27025 6.82194 8.97748 7.11668L6.99998 9.09418L5.02248 7.11668C4.72937 6.8248 4.50502 6.47124 4.36577 6.08173C4.22651 5.69222 4.17585 5.27656 4.21748 4.86501V4.86501ZM11.0833 11.6667H2.91665C2.76194 11.6667 2.61356 11.7281 2.50417 11.8375C2.39477 11.9469 2.33331 12.0953 2.33331 12.25C2.33331 12.4047 2.39477 12.5531 2.50417 12.6625C2.61356 12.7719 2.76194 12.8333 2.91665 12.8333H11.0833C11.238 12.8333 11.3864 12.7719 11.4958 12.6625C11.6052 12.5531 11.6666 12.4047 11.6666 12.25C11.6666 12.0953 11.6052 11.9469 11.4958 11.8375C11.3864 11.7281 11.238 11.6667 11.0833 11.6667Z" fill="#8C98A4"/>
</svg>
