<svg width="24" height="24" viewBox="0 0 24 24" fill="none" xmlns="http://www.w3.org/2000/svg">
<path d="M12.3039 12.6665C15.2494 12.6665 17.6372 10.2788 17.6372 7.33327C17.6372 4.38779 15.2494 2 12.3039 2C9.35843 2 6.97064 4.38779 6.97064 7.33327C6.97064 10.2788 9.35843 12.6665 12.3039 12.6665Z" fill="#196ECD"/>
<path fill-rule="evenodd" clip-rule="evenodd" d="M12.304 13.9999C7.41067 13.9999 3.39738 17.2265 3.00272 21.3331C2.96805 21.6998 3.26938 21.9998 3.63738 21.9998H20.9705C21.0572 22.0021 21.1435 21.9862 21.2237 21.953C21.3039 21.9199 21.3762 21.8703 21.436 21.8075C21.4958 21.7447 21.5418 21.67 21.5709 21.5883C21.6001 21.5065 21.6117 21.4196 21.6052 21.3331C21.2105 17.2265 17.1972 13.9999 12.304 13.9999Z" fill="#196ECD"/>
</svg>
